<?xml version="1.0" encoding="utf-8"?>
<!-- Generator: Adobe Illustrator 22.1.0, SVG Export Plug-In . SVG Version: 6.00 Build 0)  -->
<svg version="1.1" id="Capa_1" xmlns="http://www.w3.org/2000/svg" xmlns:xlink="http://www.w3.org/1999/xlink" x="0px" y="0px"
	 viewBox="0 0 1307.1 509.1" style="enable-background:new 0 0 1307.1 509.1;" xml:space="preserve">
<style type="text/css">
	.st0{fill:#115C97;}
	.st1{fill:#1C3661;}
	.st2{font-family:'Metropolis-Black';}
	.st3{font-size:132.0177px;}
</style>
<polygon class="st0" points="263.7,136.2 248,127.4 233.2,135.7 248.8,144.5 "/>
<polygon class="st0" points="372.7,197.2 354.4,187 354.3,186.9 328.9,172.7 314.1,181 357.8,205.5 "/>
<polygon class="st0" points="357,176 371.4,168 326.2,142.7 311.9,150.7 "/>
<polygon class="st0" points="318.6,227.5 274.8,203 257.8,212.5 301.6,237.1 "/>
<polygon class="st0" points="346.7,211.8 331.1,203 314.1,212.5 329.7,221.3 "/>
<polygon class="st0" points="383.8,191 398.1,183 382.5,174.2 368.2,182.2 "/>
<polygon class="st0" points="302.9,206.3 320,196.8 300.3,185.8 300.2,185.7 274.8,171.5 257.8,181 "/>
<polygon class="st0" points="246.7,237.8 263.7,228.3 244.1,217.3 243.9,217.2 218.6,203 201.5,212.5 "/>
<polygon class="st0" points="243.9,185.7 220.7,172.7 203.7,182.2 246.7,206.3 263.7,196.8 244,185.8 "/>
<polygon class="st0" points="317.8,166.5 298.1,155.5 298,155.4 274.8,142.4 260,150.7 303,174.8 "/>
<polygon class="st0" points="315.1,136.5 273.5,113.2 259.2,121.2 300.8,144.5 "/>
<polygon class="st1" points="143.1,234.1 268,304.1 268,262.2 143.1,192.3 "/>
<polygon class="st0" points="274.8,234.5 257.8,244 273.5,252.8 290.5,243.3 "/>
<polygon class="st1" points="278.9,412.7 403.8,342.7 403.8,300.9 278.9,370.8 "/>
<polygon class="st1" points="360.6,216.4 360.5,216.5 304.3,248 304.3,248 278.9,262.2 278.9,304.1 403.8,234.1 403.8,192.3 "/>
<polygon class="st1" points="278.9,358.4 403.8,288.4 403.8,246.6 278.9,316.5 "/>
<polygon class="st0" points="209.6,166.5 193.9,157.7 176.9,167.2 192.6,176 "/>
<polygon class="st0" points="263.7,165.3 222.1,142 205,151.5 246.7,174.8 "/>
<polygon class="st1" points="143.1,264.5 143.1,288.4 268,358.4 268,316.5 143.1,246.6 "/>
<polygon class="st0" points="207.4,196.8 189.9,186.9 189.9,186.9 165.8,173.5 148.8,183 190.4,206.3 "/>
<polygon class="st1" points="143.1,342.7 268,412.7 268,370.8 143.1,300.9 "/>
<text transform="matrix(1 0 0 1 476.022 304.0723)" class="st1 st2 st3">BAUHAUS</text>
</svg>
